<?xml version="1.0" encoding="UTF-8"?>
<svg xmlns="http://www.w3.org/2000/svg" width="240" height="90" viewBox="0 0 240 90" role="img" aria-label="Green Hills">
  <defs>
    <linearGradient id="g1" x1="0" y1="0" x2="1" y2="0">
      <stop offset="0%" stop-color="#7ED957"/>
      <stop offset="100%" stop-color="#4CAF50"/>
    </linearGradient>
    <linearGradient id="g2" x1="0" y1="0" x2="1" y2="0">
      <stop offset="0%" stop-color="#A8E063"/>
      <stop offset="100%" stop-color="#66BB6A"/>
    </linearGradient>
    <linearGradient id="g3" x1="0" y1="0" x2="1" y2="0">
      <stop offset="0%" stop-color="#C8E6C9"/>
      <stop offset="100%" stop-color="#81C784"/>
    </linearGradient>
  </defs>
  <!-- Waves -->
  <path d="M6 48 C 28 36, 58 30, 100 38 C 140 46, 168 44, 210 30 L 210 40 C 168 54, 140 56, 100 48 C 58 40, 28 46, 6 58 Z" fill="url(#g3)"/>
  <path d="M6 38 C 30 24, 60 20, 102 28 C 142 36, 170 34, 214 20 L 214 30 C 170 44, 142 46, 102 38 C 60 30, 30 36, 6 50 Z" fill="url(#g2)"/>
  <path d="M6 28 C 32 16, 64 12, 106 20 C 146 28, 174 26, 218 12 L 218 22 C 174 36, 146 38, 106 30 C 64 22, 32 28, 6 40 Z" fill="url(#g1)"/>
  <!-- Brand text -->
  <text x="150" y="70" font-family="Segoe UI, Roboto, Arial, sans-serif" font-size="16" fill="#e8eeff" transform="rotate(-12 150,70)" opacity="0.9">GREEN HILLS</text>
</svg>
